<?xml version="1.0" encoding="utf-8"?>
<!-- Generator: Adobe Illustrator 25.0.1, SVG Export Plug-In . SVG Version: 6.00 Build 0)  -->
<svg version="1.1" id="Layer_1" xmlns="http://www.w3.org/2000/svg" xmlns:xlink="http://www.w3.org/1999/xlink" x="0px" y="0px"
     width="186px" height="200px" viewBox="0 0 186 200" enable-background="new 0 0 186 200" xml:space="preserve">
<g>
	<path fill="#58585A" d="M155.3,18.3c0,9.4-7.6,16.7-16.7,16.7c-9.2,0-16.7-7.6-16.7-16.7c0-9.4,7.6-16.7,16.7-16.7
		C147.7,1.5,155.3,9.1,155.3,18.3z"/>
  <path fill="#58585A" d="M116.4,50.2L94.8,90.4c5.6,10.3,10.5,19.6,12.9,24.3l20.5-35l0.2,0.2l-1.3,88.6h27.9l0.4-118.3H116.4z"/>
  <path fill="#ED1D24" d="M64,18.3C64,27.6,56.4,35,47.2,35c-9.4,0-16.7-7.6-16.7-16.7c0-9.4,7.6-16.7,16.7-16.7
		C56.6,1.5,64,9.1,64,18.3z"/>
  <path fill="#ED1D24" d="M105.7,118c0.7-1.1-36.4-68.1-36.4-68.1H30.5v118.3H58V79.6l30.8,54.5h7.6L105.7,118z"/>
</g>
</svg>
